<svg width="2092" height="864" viewBox="0 0 2092 864" fill="none" xmlns="http://www.w3.org/2000/svg">
<g clip-path="url(#clip0_199_207)">
<rect width="2092" height="852" fill="url(#paint0_radial_199_207)"/>
<path d="M1020.5 112C934 18 845 10 719.5 0H0V864L1801 848V517.098C1710.28 441.709 1837.48 569.905 1762.5 578C1684.89 578 1443.76 516.736 1285.5 346.5C1237.6 294.971 1165.5 222.5 1020.5 112Z" fill="url(#paint1_radial_199_207)"/>
<path d="M836.23 670.447C784.5 747.085 73.8588 795.884 0 731.327V864H2092V157.293L1797.56 141.159C1652.34 141.158 1552.45 128.251 1347.11 335.385C1241.52 441.9 1214.71 537.064 1131.87 584.316C1038.48 637.588 932.832 527.332 836.23 670.447Z" fill="url(#paint2_radial_199_207)"/>
</g>
<defs>
<radialGradient id="paint0_radial_199_207" cx="0" cy="0" r="1" gradientUnits="userSpaceOnUse" gradientTransform="translate(1773.84 333.064) rotate(144.512) scale(893.895 1435.7)">
<stop stop-color="#F77300"/>
<stop offset="1" stop-color="#B30528"/>
</radialGradient>
<radialGradient id="paint1_radial_199_207" cx="0" cy="0" r="1" gradientUnits="userSpaceOnUse" gradientTransform="translate(1147 250.5) rotate(145.316) scale(935.781 1464.31)">
<stop stop-color="#B30528"/>
<stop stop-color="#B80F24"/>
<stop offset="1" stop-color="#F77300"/>
</radialGradient>
<radialGradient id="paint2_radial_199_207" cx="0" cy="0" r="1" gradientUnits="userSpaceOnUse" gradientTransform="translate(1953.37 149.185) rotate(122.165) scale(1010.75 1651.95)">
<stop stop-color="#B30528"/>
<stop offset="1" stop-color="#F77300"/>
</radialGradient>
<clipPath id="clip0_199_207">
<rect width="2092" height="864" fill="white"/>
</clipPath>
</defs>
</svg>
