<svg width="91" height="43" viewBox="0 0 91 43" fill="none" xmlns="http://www.w3.org/2000/svg">
<path d="M35 21.5C35 29.9803 27.4725 37 18 37C8.52747 37 1 29.9803 1 21.5C1 13.0197 8.52747 6 18 6C27.4725 6 35 13.0197 35 21.5Z" stroke="white" stroke-width="2"/>
<path d="M1.5 17L1.05821 2.8626C1.03329 2.06531 1.90611 1.5612 2.58426 1.98122L11 7.19355" stroke="white" stroke-width="2" stroke-linecap="round"/>
<path d="M34.5 17L34.9418 2.8626C34.9667 2.06531 34.0939 1.5612 33.4157 1.98122L25 7.19355" stroke="white" stroke-width="2" stroke-linecap="round"/>
<circle cx="26" cy="20" r="3.5" stroke="white"/>
<circle cx="26" cy="20" r="1.5" fill="white" stroke="white"/>
<circle cx="10" cy="20" r="3.5" stroke="white"/>
<circle cx="10" cy="20" r="1.5" fill="white" stroke="white"/>
<path d="M18 6V15" stroke="white" stroke-linecap="round"/>
<path d="M21 6V14" stroke="white" stroke-linecap="round"/>
<path d="M31 28H23" stroke="white" stroke-linecap="round"/>
<path d="M29 31H25" stroke="white" stroke-linecap="round"/>
<path d="M5 28H13" stroke="white" stroke-linecap="round"/>
<path d="M7 31H11" stroke="white" stroke-linecap="round"/>
<path d="M15 6V14" stroke="white" stroke-linecap="round"/>
<path d="M17.5839 27.4746C17.7818 27.7714 18.2181 27.7714 18.416 27.4746L20.5475 24.2773C20.769 23.9451 20.5308 23.5 20.1314 23.5H15.8685C15.4691 23.5 15.2309 23.9451 15.4524 24.2774L17.5839 27.4746Z" stroke="white"/>
<path d="M18 28V37" stroke="white" stroke-linecap="round"/>
<path d="M45.076 9.556H45.796C46.708 9.556 47.476 10.06 48.1 11.068L60.484 29.068V10.96C60.484 10.456 60.592 10.096 60.808 9.88C61.024 9.664 61.372 9.556 61.852 9.556H62.176C63.112 9.556 63.58 10.024 63.58 10.96V32.272C63.58 32.776 63.46 33.196 63.22 33.532C62.98 33.844 62.632 34 62.176 34H61.708C60.796 34 59.92 33.388 59.08 32.164L46.732 14.2V32.632C46.732 33.544 46.3 34 45.436 34H45.076C44.116 34 43.636 33.544 43.636 32.632V11.32C43.636 10.144 44.116 9.556 45.076 9.556Z" fill="white"/>
<circle cx="68" cy="22" r="1.5" fill="white" stroke="white"/>
<path d="M73.004 9.556H79.268C81.668 9.556 83.588 10.072 85.028 11.104C86.468 12.136 87.188 13.72 87.188 15.856C87.188 17.104 86.864 18.196 86.216 19.132C85.568 20.044 84.716 20.668 83.66 21.004C85.028 21.244 86.216 21.808 87.224 22.696C88.232 23.584 88.736 24.928 88.736 26.728C88.736 29.176 87.908 31 86.252 32.2C84.62 33.4 82.496 34 79.88 34H73.004C72.092 34 71.636 33.556 71.636 32.668V10.96C71.636 10.024 72.092 9.556 73.004 9.556ZM74.732 12.256V20.068H79.52C81.104 20.068 82.268 19.744 83.012 19.096C83.78 18.448 84.164 17.452 84.164 16.108C84.164 13.54 82.532 12.256 79.268 12.256H74.732ZM74.732 22.516V31.3H79.88C83.744 31.3 85.676 29.776 85.676 26.728C85.676 23.92 83.84 22.516 80.168 22.516H74.732Z" fill="white"/>
</svg>
