<?xml version="1.0" standalone="no"?>
<!DOCTYPE svg PUBLIC "-//W3C//DTD SVG 20010904//EN"
 "http://www.w3.org/TR/2001/REC-SVG-20010904/DTD/svg10.dtd">
<svg version="1.0" xmlns="http://www.w3.org/2000/svg"
 width="130.000000pt" height="130.000000pt" viewBox="0 0 130.000000 130.000000"
 preserveAspectRatio="xMidYMid meet">
<metadata>
Created by potrace 1.10, written by Peter Selinger 2001-2011
</metadata>
<g transform="translate(0.000000,130.000000) scale(0.050000,-0.050000)"
fill="white" stroke="none">
<path d="M341 1987 c-52 -67 -52 -147 0 -203 l41 -44 919 0 c892 0 920 1 959
40 52 52 51 141 -1 207 l-42 53 -917 0 -917 0 -42 -53z"/>
<path d="M349 1411 c-63 -63 -64 -150 -3 -208 46 -43 50 -43 957 -43 l910 0
44 46 c61 66 57 160 -10 213 -51 40 -72 41 -951 41 l-898 0 -49 -49z"/>
<path d="M343 834 c-54 -59 -55 -133 -2 -201 l42 -53 915 0 915 0 44 46 c57
62 56 155 -3 211 -46 43 -50 43 -957 43 l-910 0 -44 -46z"/>
</g>
</svg>
