<svg width="32" height="36" viewBox="0 0 32 36" fill="none" xmlns="http://www.w3.org/2000/svg">
<path d="M32 0L28.9995 32.4997L15.9998 36L2.99984 32.4997L0 0H32ZM25.9539 6.60832H15.9881H5.84574L6.33079 10.533H15.9881H16.5306L15.9881 10.7588L6.68375 14.634L6.99232 18.4702L15.9881 18.4994L20.8096 18.5146L20.5009 23.6298L15.988 24.9003V24.8963L15.951 24.9066L11.5927 23.8064L11.3282 20.6312H11.3138H7.27123H7.257L7.78615 26.7609L15.9882 29.1864V29.182L16.003 29.1864L24.161 26.805L25.2192 14.634H15.9882H15.9654L15.9882 14.6241L25.5574 10.533L25.9539 6.60832Z" fill="white"/>
</svg>
