<svg width="60" height="60" viewBox="0 0 60 60" fill="none" xmlns="http://www.w3.org/2000/svg">
<path d="M14.0625 37.5C14.0625 36.4645 13.223 35.625 12.1875 35.625C11.152 35.625 10.3125 36.4645 10.3125 37.5H14.0625ZM48.1875 37.5C48.1875 36.4645 47.348 35.625 46.3125 35.625C45.277 35.625 44.4375 36.4645 44.4375 37.5H48.1875ZM27.7715 38.8468C27.1347 39.6632 27.2803 40.8415 28.0968 41.4785C28.9132 42.1152 30.0915 41.9697 30.7285 41.1532L27.7715 38.8468ZM40.4785 28.6532C41.1153 27.8368 40.9698 26.6585 40.1533 26.0215C39.3368 25.3847 38.1585 25.5303 37.5215 26.3468L40.4785 28.6532ZM27.7715 41.1532C28.4085 41.9697 29.5868 42.1152 30.4032 41.4785C31.2197 40.8415 31.3652 39.6632 30.7285 38.8468L27.7715 41.1532ZM20.9785 26.3468C20.3416 25.5303 19.1633 25.3847 18.3468 26.0215C17.5303 26.6585 17.3847 27.8368 18.0216 28.6532L20.9785 26.3468ZM27.375 40C27.375 41.0355 28.2145 41.875 29.25 41.875C30.2855 41.875 31.125 41.0355 31.125 40H27.375ZM31.125 12.5C31.125 11.4645 30.2855 10.625 29.25 10.625C28.2145 10.625 27.375 11.4645 27.375 12.5H31.125ZM10.3125 37.5V40H14.0625V37.5H10.3125ZM10.3125 40C10.3125 45.1328 14.3814 49.375 19.5 49.375V45.625C16.5414 45.625 14.0625 43.1517 14.0625 40H10.3125ZM19.5 49.375H39V45.625H19.5V49.375ZM39 49.375C44.1185 49.375 48.1875 45.1328 48.1875 40H44.4375C44.4375 43.1517 41.9585 45.625 39 45.625V49.375ZM48.1875 40V37.5H44.4375V40H48.1875ZM30.7285 41.1532L40.4785 28.6532L37.5215 26.3468L27.7715 38.8468L30.7285 41.1532ZM30.7285 38.8468L20.9785 26.3468L18.0216 28.6532L27.7715 41.1532L30.7285 38.8468ZM31.125 40V12.5H27.375V40H31.125Z" fill="white"/>
</svg>
