<svg width="48" height="48" viewBox="0 0 48 48" fill="none" xmlns="http://www.w3.org/2000/svg">
<path fill-rule="evenodd" clip-rule="evenodd" d="M23.5472 0C10.296 0 0 10.8476 0 24.4211C0 35.2774 6.76499 44.6864 16.3019 47.9377C17.5027 48.1624 18.1132 47.6847 18.1132 47.0332C18.1132 46.4493 18.125 44.5611 18.1132 42.5108C11.4375 43.9953 9.96226 38.8929 9.96226 38.8929C8.8705 36.0536 7.24528 35.2749 7.24528 35.2749C5.0662 33.7512 7.24528 34.3704 7.24528 34.3704C9.65419 34.5437 10.8679 37.0839 10.8679 37.0839C13.0087 40.8389 16.746 39.5218 18.1132 38.8929C18.3313 37.3056 19.2394 35.8891 19.9245 35.2749C14.5955 34.6533 9.0566 32.9337 9.0566 23.5166C9.0566 20.8327 9.33269 17.9991 10.8679 16.2807C10.6204 15.6591 10.4667 13.3333 11.7736 9.94933C11.7736 9.94933 13.5282 9.48406 18.1132 12.6628C20.0271 12.1182 22.4123 11.7689 24.4528 11.7583C26.4919 11.7689 27.97 12.1182 29.8868 12.6628C34.4689 9.48406 36.2264 9.94933 36.2264 9.94933C37.5365 13.3333 37.3782 15.6591 37.1321 16.2807C38.6702 17.9991 38.9434 20.8327 38.9434 23.5166C38.9434 32.9578 33.4207 34.667 28.0755 35.2749C28.9359 36.034 29.8868 37.5042 29.8868 39.7973C29.8868 43.0816 29.8868 46.2276 29.8868 47.0332C29.8868 47.691 30.4811 48.1779 31.6981 47.9377C41.2278 44.6808 48 35.2759 48 24.4211C48 10.8476 36.8029 0 23.5472 0Z" fill="white"/>
</svg>
