<svg width="28" height="24" viewBox="0 0 28 24" fill="none" xmlns="http://www.w3.org/2000/svg">
<path d="M17.3083 21.5469C16.4516 21.8995 15.5269 22.0477 14.6052 21.9801C13.6858 22.0574 12.7616 21.9088 11.9103 21.5469C11.7929 21.4503 11.6985 21.328 11.6341 21.1891C11.5697 21.0502 11.537 20.8983 11.5383 20.7447C11.5383 20.444 11.5276 19.6542 11.5222 18.6032C8.07934 19.3644 7.3529 16.9141 7.3529 16.9141C7.12525 16.1528 6.63755 15.4994 5.97789 15.072C4.85533 14.2903 6.06249 14.3067 6.06249 14.3067C6.45478 14.3619 6.8295 14.5076 7.15809 14.7325C7.48667 14.9575 7.76043 15.2559 7.95849 15.6049C8.12618 15.9156 8.35272 16.1893 8.62502 16.4103C8.89731 16.6312 9.20995 16.7951 9.54485 16.8923C9.87976 16.9895 10.2303 17.0182 10.5761 16.9767C10.922 16.9351 11.2563 16.8242 11.5598 16.6504C11.6165 16.0113 11.8955 15.4137 12.3467 14.9654C9.59936 14.6483 6.7097 13.5674 6.7097 8.74192C6.69165 7.49039 7.14746 6.27976 7.98266 5.36098C7.60549 4.27501 7.64918 3.08356 8.10485 2.02923C8.10485 2.02923 9.14282 1.69031 11.5075 3.32066C13.5357 2.75473 15.6762 2.75473 17.7044 3.32066C20.0677 1.69031 21.1043 2.02923 21.1043 2.02923C21.5608 3.08329 21.605 4.2749 21.2278 5.36098C22.063 6.27967 22.5184 7.49047 22.4994 8.74192C22.4994 13.5797 19.6057 14.6456 16.849 14.9572C17.1443 15.2623 17.372 15.6282 17.5168 16.0304C17.6615 16.4325 17.72 16.8615 17.6883 17.2886C17.6883 18.9722 17.6735 20.332 17.6735 20.7447C17.6812 20.8985 17.652 21.052 17.5883 21.1917C17.5247 21.3315 17.4286 21.4534 17.3083 21.5469Z" fill="white"/>
</svg>
