<svg width="48" height="48" viewBox="0 0 48 48" fill="none" xmlns="http://www.w3.org/2000/svg">
<g clip-path="url(#clip0_90_89)">
<path d="M34.4151 0H13.5849C6.28112 0 0 6.28112 0 13.5849V34.4151C0 41.7192 6.28112 48 13.5849 48H34.4151C41.7194 48 48 41.7189 48 34.4151V13.5849C48.0003 6.28112 41.7194 0 34.4151 0ZM43.4717 34.4151C43.4717 39.3709 39.3709 43.4717 34.4151 43.4717H13.5849C8.6294 43.472 4.5283 39.3709 4.5283 34.4151V13.5849C4.5283 8.6294 8.6294 4.5283 13.5849 4.5283H34.4151C39.3709 4.5283 43.4717 8.6294 43.4717 13.5849V34.4151Z" fill="white"/>
<path d="M24.4528 11.7736C17.7111 11.7736 11.7736 17.7109 11.7736 24.4528C11.7736 31.1944 17.7111 36.2264 24.4528 36.2264C31.1946 36.2264 36.2264 31.1944 36.2264 24.4528C36.2264 17.7109 31.1946 11.7736 24.4528 11.7736ZM24.4528 31.6981C20.0327 31.6981 16.3019 28.873 16.3019 24.4528C16.3019 20.0323 20.0324 16.3019 24.4528 16.3019C28.8732 16.3019 31.6981 20.0323 31.6981 24.4528C31.6981 28.873 28.8729 31.6981 24.4528 31.6981Z" fill="white"/>
<path d="M37.1321 8.151C36.2993 8.151 35.0033 8.46592 34.4151 9.05666C33.8241 9.64452 33.5095 10.938 33.5095 11.7736C33.5095 12.6067 33.8244 12.9942 34.4151 13.585C35.003 14.1728 36.2993 14.4906 37.1321 14.4906C37.9678 14.4906 38.3527 14.1728 38.9434 13.585C39.5342 12.9942 39.8491 12.6064 39.8491 11.7736C39.8491 10.938 39.5342 9.64452 38.9434 9.05666C38.3556 8.46592 37.9678 8.151 37.1321 8.151Z" fill="white"/>
</g>
<defs>
<clipPath id="clip0_90_89">
<rect width="48" height="48" fill="white"/>
</clipPath>
</defs>
</svg>
