<svg width="48" height="48" viewBox="0 0 48 48" fill="none" xmlns="http://www.w3.org/2000/svg">
<path d="M44.3774 0H3.62264C1.49264 0 0 1.49264 0 3.62264V44.3774C0 46.5074 1.49264 48 3.62264 48H44.3774C46.5074 48 48 46.5074 48 44.3774V3.62264C48 1.49264 46.5074 0 44.3774 0ZM44.3774 44.3774C17.5094 44.3714 3.62264 44.3834 3.62264 44.3774C3.62864 17.5094 3.61664 3.62264 3.62264 3.62264C30.4906 3.62864 44.3774 3.61664 44.3774 3.62264C44.3714 30.4906 44.3834 44.3774 44.3774 44.3774ZM7.24528 18.1132H14.4906V40.7547H7.24528V18.1132ZM10.8679 14.4906C13.1419 14.4906 14.4906 13.1479 14.4906 10.8679C14.4906 10.3258 14.698 9.55744 14.4906 9.0566C14.2831 8.55577 13.9682 8.53426 13.5849 8.15094C13.2016 7.76762 13.1801 7.45273 12.6792 7.24528C12.1784 7.03783 11.41 6.33962 10.8679 6.33962C10.3258 6.33962 9.55744 7.03783 9.0566 7.24528C8.55577 7.45273 8.53426 7.76762 8.15094 8.15094C7.76762 8.53426 7.45273 8.55577 7.24528 9.0566C7.03783 9.55744 6.33962 10.3258 6.33962 10.8679C6.33362 13.1479 8.58192 14.4906 10.8679 14.4906ZM26.2642 29.8868C26.2642 26.8988 26.1848 23.5472 29.8868 23.5472C33.5348 23.5472 33.5094 27.2288 33.5094 29.8868V40.7547H40.7547V28.0755C40.7547 21.9075 39.8098 17.2075 32.6038 17.2075C29.1418 17.2075 26.3125 19.0302 25.3585 20.8302V18.1132H19.0189V40.7547H26.2642V29.8868Z" fill="white"/>
</svg>
