<svg width="50" height="37" viewBox="0 0 50 37" fill="none" xmlns="http://www.w3.org/2000/svg">
<path d="M40.1157 35C40.1622 34.9288 41.0842 34.0863 41.1157 34C41.2642 33.6061 41.1862 33.4196 41.1157 33C41.0377 32.5577 40.3512 32.3863 40.1157 32L30.1157 13L28.1157 10L16.1157 32C15.9042 32.3787 15.1862 32.5743 15.1157 33C15.0302 33.4893 15.9207 34.5425 16.1157 35H15.1157C15.1397 35.0712 16.0767 34.9303 16.1157 35C16.4367 35.5529 16.6156 36 18.1157 36H38.1157C38.4277 36 39.4047 36.2225 40.1157 35ZM28.1157 16L38.1157 33H18.1157L28.1157 16ZM48.1157 32L34.1157 7C33.9672 6.73186 33.5303 5 32.1157 5C31.4827 5 30.8583 5.68961 30.1157 7L28.1157 10L30.1157 13L32.1157 9L46.1157 33H41.1157C41.1862 33.4105 41.2567 33.6061 41.1157 34C41.0842 34.0863 40.1622 34.9212 40.1157 35C39.4047 36.2225 38.4127 36 38.1157 36H46.1157C46.4202 36 48.4047 36.2225 49.1157 35C49.4367 34.4395 48.8658 33.3028 48.1157 32ZM16.1157 35C16.0842 34.9364 16.1472 35.0636 16.1157 35C15.9207 34.5425 15.0302 33.4893 15.1157 33H4.11572L21.1157 3L26.1157 13L28.1157 10L23.1157 2C22.9822 1.7561 22.5228 0 21.1157 0C20.4827 0 19.8508 0.68204 19.1157 2L1.11572 32C0.967208 32.2606 0.412159 33.7775 1.11572 35C1.43675 35.5605 2.61559 36 4.11572 36H18.1157C16.6306 36 16.4367 35.5681 16.1157 35Z" fill="white"/>
</svg>
