<svg width="26" height="26" viewBox="0 0 26 26" fill="none" xmlns="http://www.w3.org/2000/svg">
<rect width="26" height="26" rx="13" fill="white"/>
<path d="M4.5825 10.1033H7.54875C8.41937 10.1101 9.04999 10.3595 9.44124 10.8521C9.83187 11.344 9.96124 12.0159 9.82874 12.8672C9.77444 13.2646 9.65846 13.6512 9.48499 14.0129C9.31562 14.3879 9.07937 14.7254 8.77687 15.0261C8.40812 15.4073 8.01375 15.6505 7.59312 15.753C7.16548 15.8567 6.72691 15.9085 6.28687 15.9074H4.95875L4.53812 18H3L4.5825 10.1033ZM5.8775 11.3583L5.2125 14.6629C5.25687 14.6698 5.30125 14.6735 5.34562 14.6735H5.50062C6.20875 14.681 6.79937 14.611 7.27125 14.4642C7.74375 14.3104 8.06062 13.7741 8.22312 12.8566C8.35562 12.0853 8.22312 11.6415 7.82437 11.524C7.43375 11.4065 6.94312 11.3515 6.3525 11.3583C6.2679 11.3656 6.18303 11.3693 6.09812 11.3696H5.86562L5.8775 11.3583ZM11.5812 8H13.1087L12.6769 10.1039H14.0494C14.8019 10.1183 15.3625 10.2726 15.7312 10.5664C16.1075 10.8602 16.2187 11.4177 16.0637 12.2403L15.3219 15.908H13.7725L14.4806 12.4053C14.5544 12.0384 14.5325 11.7777 14.4144 11.624C14.2962 11.4696 14.0419 11.3927 13.6506 11.3927L12.4225 11.3815L11.515 15.908H9.98749L11.5812 8ZM17.7037 10.1033H20.6694C21.54 10.1101 22.1712 10.3595 22.5619 10.8521C22.9531 11.344 23.0825 12.0159 22.9494 12.8672C22.8953 13.2646 22.7795 13.6512 22.6062 14.0129C22.4369 14.3879 22.2006 14.7254 21.8981 15.0261C21.5294 15.4073 21.1344 15.6505 20.7137 15.753C20.2861 15.8567 19.8475 15.9085 19.4075 15.9074H18.08L17.6594 18H16.1212L17.7037 10.1033ZM18.9987 11.3583L18.3344 14.6629C18.3787 14.6698 18.4231 14.6735 18.4675 14.6735H18.6225C19.3306 14.681 19.9206 14.611 20.3931 14.4642C20.865 14.3104 21.1825 13.7741 21.345 12.8566C21.4775 12.0853 21.345 11.6415 20.9462 11.524C20.5556 11.4065 20.065 11.3515 19.4744 11.3583C19.3898 11.3656 19.3049 11.3693 19.22 11.3696H18.9875L18.9987 11.3583Z" fill="#4B4B4B"/>
</svg>
