<svg width="40" height="36" viewBox="0 0 40 36" fill="none" xmlns="http://www.w3.org/2000/svg">
<path d="M17.7493 26.3686C18.4829 26.4023 19.2324 26.4266 19.9913 26.4266C20.7582 26.4266 21.5158 26.4104 22.2587 26.3686C21.5158 27.3389 20.7822 28.1973 20.006 29.0153L20.0167 29.0046C19.2444 28.196 18.5029 27.3362 17.804 26.4414L17.7493 26.3686ZM10.1497 25.2906C11.5941 25.6611 13.356 25.9765 15.1539 26.1705L15.3286 26.1854C16.4289 27.7122 17.5413 29.0558 18.735 30.3198L18.7203 30.3037C16.9718 32.2752 14.6124 33.6606 11.9436 34.1578L11.8702 34.1686C11.8649 34.1686 11.8596 34.1686 11.8542 34.1686C11.5235 34.1686 11.2114 34.0864 10.9379 33.9409L10.9486 33.9462C9.83895 33.3061 9.35747 30.8575 9.73225 27.7109C9.82161 26.936 9.96832 26.1207 10.1484 25.2892L10.1497 25.2906ZM29.8663 25.273C30.0237 25.9118 30.1717 26.7258 30.2771 27.5532L30.2891 27.6691C30.6719 30.8144 30.1997 33.2603 29.0994 33.9139C28.854 34.0514 28.5606 34.1322 28.2485 34.1322C28.2178 34.1322 28.1871 34.1309 28.1564 34.1295H28.1604C25.4223 33.6242 23.0643 32.2483 21.3197 30.301L21.3104 30.2902C22.4827 29.0463 23.5871 27.7055 24.5994 26.2945L24.6767 26.1813C26.6453 25.9738 28.4099 25.6531 30.129 25.2151L29.8663 25.2717V25.273ZM11.7088 20.2438C12.0423 20.9041 12.3917 21.5617 12.7758 22.2221C13.1591 22.8788 13.5507 23.5203 13.9509 24.1464C12.7932 23.9753 11.6755 23.7597 10.6072 23.4969C10.9073 22.4363 11.2834 21.338 11.7075 20.2411L11.7088 20.2438ZM28.2845 20.2101C28.726 21.3165 29.1007 22.4202 29.4115 23.4902C28.3445 23.7543 27.2175 23.978 26.0518 24.1464C26.4519 23.5144 26.8521 22.8635 27.2268 22.1965C27.6016 21.5402 27.9524 20.8691 28.2872 20.2087L28.2845 20.2101ZM8.82131 13.0017C9.40282 14.9935 10.027 16.6591 10.7539 18.2655L10.6539 18.0202C10.0323 19.3746 9.41749 21.0308 8.91334 22.7355L8.84399 23.0118C7.90237 22.7193 7.14481 22.4323 6.40726 22.1102L6.56063 22.1695C3.67444 20.9284 1.80721 19.2964 1.80721 18.0027C1.80721 16.709 3.67444 15.069 6.56063 13.8332C7.26084 13.53 8.02907 13.2564 8.82131 13.0017ZM31.1467 12.995C31.9536 13.247 32.7205 13.5286 33.438 13.8332C36.3242 15.0797 38.1915 16.709 38.1915 18.0027C38.1835 19.2964 36.3162 20.9324 33.43 22.1708C32.7298 22.4741 31.9629 22.7463 31.172 23.001C30.5852 21.0025 29.961 19.3382 29.2368 17.7291L29.3381 17.9825C29.957 16.6295 30.5732 14.9733 31.076 13.2685L31.1467 12.9909V12.995ZM26.0411 11.859C27.2002 12.0328 28.3165 12.2457 29.3848 12.5112C29.0847 13.5758 28.7099 14.6701 28.2845 15.767C27.9511 15.1107 27.6016 14.4491 27.2175 13.7901C26.8427 13.1297 26.4426 12.4869 26.0425 11.8603L26.0411 11.859ZM13.9415 11.859C13.5414 12.4937 13.1413 13.1432 12.7678 13.813C12.3931 14.4693 12.0423 15.1296 11.7088 15.7899C11.2674 14.6849 10.8926 13.5839 10.5818 12.5112C11.6488 12.2592 12.7732 12.0341 13.9402 11.8616L13.9415 11.859ZM19.9993 11.4304C21.233 11.4304 22.4614 11.487 23.6698 11.5867C24.3464 12.5669 25.0035 13.6108 25.641 14.7186C26.2608 15.7967 26.8263 16.8891 27.3375 17.996C26.824 19.0996 26.2612 20.202 25.649 21.2801C25.0155 22.3919 24.3606 23.4497 23.6818 24.4294C22.4681 24.5359 21.2384 24.5938 19.998 24.5938C18.7643 24.5938 17.5359 24.5345 16.3276 24.4375C15.6514 23.4578 14.9912 22.4094 14.3563 21.3057C13.7366 20.2276 13.1711 19.1351 12.6598 18.0283C13.1653 16.9219 13.7361 15.8169 14.3483 14.7374C14.9818 13.6257 15.6367 12.5718 16.3156 11.5921C17.5293 11.4843 18.759 11.4277 19.9993 11.4277V11.4304ZM19.974 7.00891C20.7476 7.81747 21.4891 8.6759 22.1867 9.57071L22.24 9.64213C21.5065 9.60844 20.7569 9.58554 19.998 9.58554C19.2311 9.58554 18.4735 9.60171 17.7307 9.64213C18.4722 8.67186 19.2058 7.81343 19.9833 6.99543L19.9727 7.00621L19.974 7.00891ZM11.8369 1.87183C14.575 2.37853 16.9317 3.75444 18.6776 5.70038L18.6869 5.71116C17.5146 6.95635 16.4103 8.29722 15.398 9.71086L15.3206 9.82406C13.3533 10.0302 11.5888 10.3483 9.87096 10.7863L10.1324 10.7297C9.94565 9.90492 9.80694 9.10579 9.70958 8.339C9.3268 5.19368 9.79894 2.74777 10.8993 2.09688C11.174 1.96616 11.4954 1.8853 11.8342 1.87452H11.8382L11.8369 1.87183ZM28.1218 1.83814V1.84892C28.1391 1.84892 28.1591 1.84757 28.1805 1.84757C28.4992 1.84757 28.7993 1.92708 29.0634 2.06723L29.0527 2.06184C30.1624 2.70465 30.6439 5.15191 30.2691 8.29992C30.1797 9.07479 30.033 9.89144 29.853 10.7243C28.4059 10.3496 26.644 10.0329 24.8461 9.84023L24.6754 9.82541C23.5737 8.29722 22.4614 6.95366 21.2677 5.68825L21.2837 5.70442C23.0322 3.73692 25.3876 2.35158 28.0511 1.85161L28.1258 1.83948L28.1218 1.83814ZM28.1298 0.00269502C24.8728 0.502658 22.0533 2.10092 19.994 4.40668L19.9833 4.41881C17.9094 2.1144 15.0899 0.526915 11.9129 0.0458186L11.8382 0.0363853C11.8209 0.0363853 11.7995 0.0363853 11.7782 0.0363853C11.1233 0.0363853 10.5085 0.210227 9.97633 0.514786L9.995 0.505353C7.70364 1.84083 7.19016 6.00225 8.37318 11.2242C3.29966 12.8077 0 15.3385 0 18.0054C0 20.6831 3.317 23.2206 8.40519 24.7919C7.2315 30.0341 7.75566 34.2023 10.0523 35.5364C10.5565 35.8288 11.162 36 11.8062 36C11.8356 36 11.8649 36 11.8929 35.9987H11.8889C15.1459 35.4987 17.9654 33.8991 20.0247 31.592L20.0353 31.5798C22.1093 33.8856 24.9288 35.4731 28.1058 35.9542L28.1805 35.9636C28.2005 35.9636 28.2258 35.9636 28.2498 35.9636C28.9007 35.9636 29.5129 35.7911 30.0423 35.4906L30.0237 35.5C32.3137 34.1659 32.8285 30.0045 31.6455 24.7812C36.7003 23.2112 40 20.675 40 18.004C40 15.3263 36.683 12.7888 31.5948 11.2134C32.7685 5.97664 32.2443 1.80445 29.9477 0.468968C29.4382 0.173842 28.8273 0 28.1765 0C28.1591 0 28.1418 0 28.1244 0H28.1271L28.1298 0.00269502ZM23.7164 18.0054C23.7164 20.0847 22.0479 21.7706 19.99 21.7706C17.932 21.7706 16.2635 20.0847 16.2635 18.0054C16.2635 15.926 17.932 14.2402 19.99 14.2402C21.0196 14.2402 21.9506 14.662 22.6255 15.3425C23.3003 16.0244 23.7164 16.965 23.7164 18.0054Z" fill="white"/>
</svg>
