<svg width="33" height="36" viewBox="0 0 33 36" fill="none" xmlns="http://www.w3.org/2000/svg">
<path d="M16.1157 9C25.03 9 32.1157 6.975 32.1157 4.5C32.1157 2.025 25.03 0 16.1157 0C7.20144 0 0.115723 2.025 0.115723 4.5C0.115723 6.975 7.20144 9 16.1157 9ZM16.1157 29.25C7.20144 29.25 0.115723 27.225 0.115723 24.75V31.5C0.115723 33.975 7.20144 36 16.1157 36C25.03 36 32.1157 33.975 32.1157 31.5V24.75C32.1157 27.225 25.03 29.25 16.1157 29.25ZM16.1157 20.25C7.20144 20.25 0.115723 18.225 0.115723 15.75V22.5C0.115723 24.975 7.20144 27 16.1157 27C25.03 27 32.1157 24.975 32.1157 22.5V15.75C32.1157 18.225 25.03 20.25 16.1157 20.25ZM16.1157 11.25C7.20144 11.25 0.115723 9.225 0.115723 6.75V13.5C0.115723 15.975 7.20144 18 16.1157 18C25.03 18 32.1157 15.975 32.1157 13.5V6.75C32.1157 9.225 25.03 11.25 16.1157 11.25Z" fill="white"/>
</svg>
