<svg width="48" height="48" viewBox="0 0 48 48" fill="none" xmlns="http://www.w3.org/2000/svg">
<path d="M27.1698 18.1132C27.1698 15.6099 29.1919 13.5849 31.6981 13.5849C34.2043 13.5849 36.2264 15.6115 36.2264 18.1132C36.2264 20.6165 34.2059 22.6415 31.6981 22.6415C31.6981 22.6415 31.6997 22.6415 31.6981 22.6415C29.1919 22.6415 27.1698 20.6149 27.1698 18.1132C27.1698 18.1148 27.1698 18.1132 27.1698 18.1132ZM38.0377 18.1132C38.0377 14.7824 35.0349 11.7736 31.6981 11.7736C28.3613 11.7736 26.2642 14.7824 26.2642 18.1132C26.2642 21.444 28.3613 23.5472 31.6981 23.5472C35.0333 23.5424 38.0329 21.4408 38.0377 18.1132ZM15.3962 36.2264L11.7736 35.3208C12.6138 37.0462 14.2863 38.0377 16.3019 38.0377C18.4137 38.0377 20.963 37.1486 21.7358 35.3208C21.9844 34.7413 21.7358 33.3112 21.7358 32.6038C21.7358 29.7915 19.1192 28.0755 16.3019 28.0755C15.6525 28.0755 15.0614 27.8562 14.4906 28.0755L18.1132 29.8868C19.4794 30.4694 19.9245 31.0544 19.9245 32.6038C19.9245 34.6781 18.38 37.1321 16.3019 37.1321C15.7824 37.1321 15.8468 36.4153 15.3962 36.2264ZM23.5472 0C10.9487 0.00160059 1.02141 9.42414 0 21.7358L12.6792 27.1698C13.7504 26.4303 14.8716 26.2642 16.3019 26.2642C16.3019 26.2642 16.3035 26.2642 16.3019 26.2642C16.4286 26.2642 17.0809 26.2593 17.2075 26.2642L22.6415 18.1132C22.6463 13.1194 26.6953 9.0566 31.6981 9.0566C36.7042 9.0566 40.7547 13.1162 40.7547 18.1132C40.7547 23.1102 36.7042 27.1698 31.6981 27.1698L23.5472 32.6038C23.5472 32.4949 23.5472 32.7078 23.5472 32.6038C23.5472 32.6022 23.5472 32.6054 23.5472 32.6038C23.5472 36.3523 20.0572 39.8491 16.3019 39.8491C13.0196 39.8491 10.5988 37.5026 9.96226 34.4151L0.90566 30.7925C3.85766 40.9482 12.6051 48 23.5472 48C36.8255 48 48 37.7073 48 24.4528C48 11.1984 36.8255 0 23.5472 0Z" fill="white"/>
</svg>
