<svg width="56" height="48" viewBox="0 0 56 48" fill="none" xmlns="http://www.w3.org/2000/svg">
<path d="M52.4202 0.387013L2.60354 19.9969C-0.758319 21.242 -0.758319 23.4209 1.99229 24.0434L14.5229 28.0899L19.4128 43.0308C20.0241 44.5871 19.7185 45.2097 21.2466 45.2097C22.4691 45.2097 23.0803 44.5871 23.6916 43.9646C23.9972 43.6533 26.7478 40.8519 29.804 37.7392L42.6402 47.3885C45.0852 48.6336 46.6133 48.0111 47.2246 45.2097L55.782 4.4335C56.6989 1.00955 54.5595 -0.858061 52.4202 0.387013ZM46.0021 9.72506L22.1634 31.8251L21.2466 42.097L16.3566 27.1561L44.4739 9.10253C45.6964 8.16872 46.9189 8.79126 46.0021 9.72506Z" fill="white"/>
</svg>
