<svg width="43" height="36" viewBox="0 0 43 36" fill="none" xmlns="http://www.w3.org/2000/svg">
<path d="M8.29075 0H2.14075C1.65139 0 1.35948 0.598648 1.11575 1.02857C0.87202 1.45849 0.869177 1.62888 1.11575 2.05714L20.5907 34.9714C20.8357 35.3968 21.1297 36 21.6157 36C22.1018 36 22.3958 35.3968 22.6407 34.9714L42.1157 2.05714C42.3623 1.62888 42.3593 1.45849 42.1157 1.02857C41.8719 0.598648 41.58 0 41.0907 0H34.9407L21.6157 21.6L8.29075 0Z" fill="white"/>
<path d="M30.8407 0H22.6407L21.6157 4.11429L19.5657 0H11.3657L21.6157 16.4571L30.8407 0Z" fill="white"/>
</svg>
